<?xml version="1.0" encoding="UTF-8" standalone="no"?>
<!-- Created with Inkscape (http://www.inkscape.org/) -->

<svg
   width="230mm"
   height="230mm"
   viewBox="0 0 230 230"
   version="1.1"
   id="svg5"
   xml:space="preserve"
   inkscape:export-filename="pdfchopper.png"
   inkscape:export-xdpi="28.271305"
   inkscape:export-ydpi="28.271305"
   inkscape:version="1.2.2 (b0a8486541, 2022-12-01)"
   sodipodi:docname="pdfchopper.svg"
   xmlns:inkscape="http://www.inkscape.org/namespaces/inkscape"
   xmlns:sodipodi="http://sodipodi.sourceforge.net/DTD/sodipodi-0.dtd"
   xmlns:xlink="http://www.w3.org/1999/xlink"
   xmlns="http://www.w3.org/2000/svg"
   xmlns:svg="http://www.w3.org/2000/svg"><sodipodi:namedview
     id="namedview7"
     pagecolor="#ffffff"
     bordercolor="#000000"
     borderopacity="0.25"
     inkscape:showpageshadow="2"
     inkscape:pageopacity="0.0"
     inkscape:pagecheckerboard="0"
     inkscape:deskcolor="#d1d1d1"
     inkscape:document-units="mm"
     showgrid="false"
     inkscape:zoom="0.91668772"
     inkscape:cx="-36.544615"
     inkscape:cy="453.26232"
     inkscape:window-width="1871"
     inkscape:window-height="1205"
     inkscape:window-x="2409"
     inkscape:window-y="118"
     inkscape:window-maximized="0"
     inkscape:current-layer="layer1" /><defs
     id="defs2"><linearGradient
       id="linearGradient1635"><stop
         style="stop-color:#ff5555;stop-opacity:1"
         offset="0"
         id="stop1055" /><stop
         style="stop-color:#ffffff;stop-opacity:1;"
         offset="1"
         id="stop1059" /></linearGradient><linearGradient
       inkscape:collect="always"
       xlink:href="#linearGradient1635"
       id="linearGradient1637"
       x1="73.349365"
       y1="251.93813"
       x2="71.413795"
       y2="172.89937"
       gradientUnits="userSpaceOnUse"
       gradientTransform="matrix(1,0,0,1.6143339,13.396578,-156.0513)" /></defs><g
     inkscape:label="Layer 1"
     inkscape:groupmode="layer"
     id="layer1"
     transform="translate(-2.600403,-29.449811)"><path
       id="rect1474"
       style="fill:url(#linearGradient1637);stroke-width:0.33617;stroke-linecap:round;stroke-linejoin:round"
       d="m 23.178615,106.97614 60.437763,-2.07271 c -11.656634,0.39976 59.922002,58.67243 59.922002,58.67243 l -2.44976,89.06939 c -0.0209,0.7597 -0.61183,1.37182 -1.37181,1.37182 H 23.178615 c -0.759985,0 -1.371814,-0.61183 -1.371814,-1.37182 V 108.34796 c 0,-0.75999 0.612276,-1.34577 1.371814,-1.37182 z"
       sodipodi:nodetypes="sscssssss" /><path
       style="fill:#000000;stroke-width:0.264583"
       d="m 27.307557,259.54426 c -4.877335,-0.52403 -10.071981,-5.60199 -11.033082,-10.78526 -0.38608,-2.0821 -0.36153,-135.66596 0.0253,-137.7632 0.42217,-2.28878 1.470601,-4.22972 3.382936,-6.26274 2.292192,-2.43686 4.555521,-3.5658 7.84173,-3.91142 3.064878,-0.32234 55.207686,-0.32786 56.595481,-0.006 1.402895,0.32537 2.236303,0.9978 2.979764,2.40419 3.782303,7.15491 12.575139,24.33398 12.691659,24.79644 0.18002,0.7145 -0.30667,1.38563 -1.004842,1.38563 -0.673303,0 -4.479226,-1.93053 -5.027752,-2.5503 -0.239699,-0.27082 -2.817786,-4.42147 -5.729086,-9.22366 -2.911298,-4.80218 -5.453621,-8.94601 -5.649603,-9.2085 -0.339198,-0.45432 -1.666721,-0.47832 -27.608415,-0.49914 -20.570702,-0.0165 -27.446685,0.0557 -28.045832,0.29458 -1.328618,0.52968 -2.755474,2.12978 -3.183022,3.56949 -0.337762,1.13736 -0.387326,10.14185 -0.37724,68.5317 0.0096,55.46701 0.07356,67.39588 0.365882,68.21501 0.518715,1.45354 1.617786,2.76735 2.878978,3.44149 l 1.109152,0.59287 53.275794,0.0687 c 37.293821,0.0481 53.592031,-0.0164 54.329781,-0.2151 0.57966,-0.15608 1.57876,-0.76757 2.22023,-1.35885 2.10612,-1.94136 1.96073,1.44702 1.96073,-45.69559 v -41.94542 l -4.21261,-4.21261 c -3.32694,-3.32694 -4.31431,-4.17308 -4.69635,-4.02458 -0.26607,0.10341 -2.29168,0.6476 -4.50138,1.20929 -6.25844,1.59088 -10.2295,2.19734 -14.56239,2.22396 l -3.76335,0.0231 -0.855,-0.85312 -0.85501,-0.85311 -0.1984,-3.98798 c -0.45109,-9.06712 -2.23979,-19.83285 -5.29622,-31.87661 -3.48256,-13.72294 -7.705349,-23.958041 -15.474749,-37.507301 -4.491262,-7.83242 -4.578985,-8.73995 -1.040532,-10.76444 l 1.415214,-0.80971 -2.211776,-4.16656 c -1.216475,-2.29161 -2.213279,-4.46422 -2.215118,-4.82802 -0.0051,-1.01558 0.898959,-2.26978 2.160907,-2.99771 13.97446,-8.06083 18.487544,-10.5741 19.194524,-10.68918 1.63381,-0.26595 2.20391,0.24101 4.98914,4.43668 1.44212,2.1724 2.69612,3.95179 2.78666,3.95418 0.0905,0.002 1.75742,-0.9037 3.70418,-2.01355 4.22273,-2.4074 5.44592,-2.69215 6.77186,-1.57645 0.45486,0.38273 2.02894,2.74703 3.49794,5.25398 1.46901,2.50695 3.59611,6.04637 4.72689,7.86538 2.38491,3.83644 1.68763,3.62236 6.79911,2.08745 4.40524,-1.32284 8.28571,-2.77691 13.09687,-4.9076 8.55078,-3.78682 14.2942,-7.6705 32.81076,-22.18646 14.14899,-11.09203 15.86027,-12.19338 19.74732,-12.70902 2.92018,-0.38737 7.04132,1.15365 9.78074,3.65733 3.3944,3.10229 6.95756,8.72846 7.90649,12.4842 1.10032,4.35492 -0.14096,8.69484 -3.40582,11.90783 -2.18808,2.15332 -3.8361,3.06714 -9.90756,5.49367 -5.78241,2.31101 -8.07573,3.56157 -18.56735,10.12482 -14.24825,8.9133 -19.86309,11.91138 -28.83958,15.39909 -5.87298,2.28188 -15.13636,4.99316 -18.8582,5.51957 -1.53233,0.21673 -1.59388,0.11855 2.05207,3.27297 8.16751,7.066411 17.26,13.521311 23.65186,16.790831 2.62853,1.34452 2.92023,1.56862 3.31008,2.54295 0.23514,0.58767 0.42752,1.37939 0.42752,1.75938 0,0.96904 -3.59099,8.21455 -5.48764,11.07236 -2.26336,3.41036 -3.9095,5.3966 -7.42391,8.9577 -4.54823,4.60865 -9.5836,8.5103 -15.39886,11.93181 -0.94589,0.55652 -1.98629,1.17581 -2.312,1.37618 -0.57765,0.35536 -0.5167,0.43415 2.4787,3.20452 4.11304,3.80403 5.57816,5.58009 5.78434,7.01194 0.0887,0.61596 0.12546,20.46759 0.0817,44.11472 l -0.0796,42.99479 -0.63668,1.5875 c -1.24172,3.09612 -3.27824,5.58415 -5.84901,7.14581 -3.00896,1.82785 0.9805,1.70493 -57.80813,1.78111 -29.249686,0.0379 -53.871974,-0.005 -54.716193,-0.096 z m 92.948563,-109.1319 c 14.1953,-2.8388 27.94297,-11.7394 36.41256,-23.57442 2.02655,-2.83183 3.57726,-5.76108 3.35561,-6.3387 -0.12175,-0.31726 -0.99757,0.44347 -3.495,3.03574 -7.11149,7.38152 -15.62085,13.29525 -24.63151,17.1181 -4.57984,1.94304 -13.36287,4.50683 -17.79599,5.1947 l -2.05328,0.31859 0.1283,1.20891 c 0.0706,0.6649 0.19647,1.86976 0.27979,2.67747 l 0.15149,1.46857 2.17037,-0.22378 c 1.1937,-0.12307 3.65865,-0.5214 5.47766,-0.88518 z m -6.0485,-10.31268 c 11.68852,-2.19133 21.64916,-6.51964 30.32857,-13.17901 3.06692,-2.35313 7.41431,-6.28341 9.43236,-8.52737 l 1.45321,-1.61588 -2.17085,-1.5417 c -4.83862,-3.43631 -15.46185,-11.64 -18.76869,-14.49394 -2.56828,-2.216531 -4.46347,-5.055381 -5.37046,-8.044521 -0.60255,-1.98581 -0.49261,-5.62723 0.25104,-8.31507 0.52675,-1.90391 0.57907,-2.39407 0.31064,-2.91042 -1.83264,-3.52519 -11.07455,-18.85779 -11.54025,-19.14561 -0.1216,-0.0752 -0.85148,0.23504 -1.62196,0.68933 -0.77047,0.45429 -6.34504,3.53774 -12.38792,6.85211 -12.838636,7.04167 -14.294352,7.87897 -14.294352,8.22181 0,0.14076 0.342598,0.87919 0.761331,1.64097 8.347204,15.1857 11.133351,21.334501 14.060041,31.029511 2.43099,8.05297 6.60994,26.32028 6.60994,28.89382 0,1.0083 -0.0288,1.00394 2.94735,0.44597 z m 27.36135,-53.409651 c 7.19958,-1.77088 13.50359,-4.13076 21.27242,-7.96323 6.02052,-2.97 9.48746,-4.96803 19.7241,-11.36715 11.6368,-7.27439 13.17957,-8.10697 20.10833,-10.85174 2.47385,-0.97999 4.94109,-2.00642 5.48275,-2.28095 3.44593,-1.74651 4.7889,-5.10693 3.44249,-8.61392 -1.06539,-2.77503 -3.89653,-6.4313 -6.11848,-7.90172 -1.50645,-0.99692 -3.81327,-1.17926 -5.36358,-0.42395 -1.5127,0.73699 -6.54171,4.49983 -14.5088,10.85589 -12.38404,9.87985 -20.60603,15.81091 -26.59063,19.18156 -5.10413,2.87475 -13.46734,6.26388 -20.5779,8.33905 -1.9114,0.55783 -3.51781,1.14183 -3.56979,1.29778 -0.052,0.15595 0.57827,1.60427 1.40056,3.21849 l 1.49508,2.93496 -0.55762,1.83583 c -0.30669,1.00971 -0.62764,2.01831 -0.71322,2.24132 -0.2427,0.63246 0.93515,0.51589 5.07429,-0.50222 z m -37.23932,-25.67559 c 0.10054,-0.10055 -1.93565,-3.45135 -2.08751,-3.43525 -0.4417,0.0468 -13.471515,7.64192 -13.471515,7.85256 0,0.14775 0.418481,0.95753 0.92996,1.79951 l 0.929957,1.53088 6.809028,-3.83335 c 3.74498,-2.10834 6.84552,-3.8698 6.89008,-3.91435 z M 43.08469,208.12661 c -0.461487,-0.20074 -0.967502,-0.60498 -1.12448,-0.8983 -0.195061,-0.36447 -0.285416,-5.55507 -0.285416,-16.39638 0,-15.21958 0.0205,-15.88842 0.505359,-16.48771 0.500788,-0.61897 0.560226,-0.62534 6.566829,-0.70425 8.717703,-0.11453 11.323166,0.55104 14.39851,3.67812 2.408283,2.44879 3.316346,5.87318 2.629998,9.91794 -0.43824,2.58262 -1.360823,4.3188 -3.199548,6.02114 -2.494391,2.30936 -5.218083,3.07864 -10.913128,3.08231 l -3.108854,0.002 v 5.04023 c 0,5.63644 -0.164277,6.33024 -1.618943,6.83734 -1.130535,0.3941 -2.825366,0.35342 -3.850327,-0.0924 z M 56.359168,189.307 c 2.718983,-1.41862 3.362534,-5.22516 1.274194,-7.5367 -1.245299,-1.3784 -2.819969,-1.83299 -6.349299,-1.83299 H 48.55396 v 5.04811 5.04811 l 3.373437,-0.0872 c 2.793588,-0.0722 3.555352,-0.18208 4.431771,-0.63935 z m 16.101747,18.9606 c -1.455303,-0.63258 -1.417497,-0.18715 -1.415896,-16.68135 0.0011,-9.65792 0.101393,-15.58059 0.274865,-16.2052 0.480597,-1.73047 0.734777,-1.7943 7.124718,-1.78915 6.574144,0.005 8.38061,0.28351 11.384356,1.75326 3.725847,1.82308 6.559605,5.48715 7.84869,10.1484 0.74219,2.68371 0.636611,8.19115 -0.210561,10.98355 -1.768956,5.83074 -5.966047,10.03499 -11.369577,11.38897 -1.969817,0.49359 -12.698067,0.80947 -13.636595,0.40152 z m 10.223571,-6.37901 c 3.668085,-0.47592 6.232893,-2.37575 7.436199,-5.5082 0.721826,-1.87905 0.984991,-6.4156 0.512704,-8.83815 -0.389144,-1.99608 -1.65427,-4.47069 -2.766769,-5.41186 -1.755769,-1.48538 -3.469581,-2.02333 -6.835057,-2.14547 l -3.108854,-0.11282 v 11.14511 11.14511 l 1.389062,-0.008 c 0.763984,-0.004 2.281706,-0.12399 3.372715,-0.26554 z m 22.297174,6.43768 c -0.32452,-0.0627 -0.83054,-0.41971 -1.12449,-0.7934 -0.52279,-0.66462 -0.53444,-1.02754 -0.53444,-16.65104 0,-15.55025 0.0138,-15.98539 0.52244,-16.49404 0.28735,-0.28734 0.79336,-0.59004 1.12449,-0.67266 0.33112,-0.0826 4.61726,-0.11542 9.52474,-0.0729 8.88393,0.077 8.92527,0.08 9.525,0.68001 0.51105,0.51133 0.60234,0.88113 0.60234,2.44005 0,1.55865 -0.0913,1.9288 -0.60212,2.44004 -0.58701,0.58755 -0.76953,0.60598 -7.27604,0.73496 l -6.67394,0.13229 v 4.03511 4.03511 l 4.81144,-2.1e-4 c 2.64628,-1.2e-4 5.12259,0.11809 5.5029,0.26268 1.57616,0.59926 1.91533,4.00318 0.52085,5.2272 -0.65197,0.57227 -0.87106,0.59532 -5.6598,0.59532 h -4.98158 l -0.12187,6.15156 c -0.0697,3.51595 -0.24478,6.44939 -0.40874,6.8467 -0.44425,1.0765 -2.46286,1.54521 -4.75118,1.1032 z m 56.52337,-41.42101 c -0.37814,-0.3267 -1.93973,-2.08227 -3.47019,-3.90129 -1.53046,-1.81901 -3.57255,-4.18531 -4.53798,-5.25845 -1.61194,-1.79178 -1.75533,-2.0479 -1.75533,-3.13531 0,-0.9939 0.14453,-1.32868 0.89958,-2.08373 0.71242,-0.71242 1.11152,-0.8993 1.91823,-0.8982 1.46395,0.002 2.14205,0.54172 5.1824,4.12477 1.49348,1.76006 3.56084,4.15165 4.59413,5.31464 2.0485,2.30564 2.39966,3.1108 1.95042,4.47201 -0.6186,1.8744 -3.30441,2.64148 -4.78126,1.36556 z M 88.344148,154.278 c -1.005408,-0.40623 -1.69019,-1.5646 -1.69019,-2.8591 0,-1.18357 0.03597,-1.23116 3.773406,-4.9914 3.271437,-3.29141 3.884829,-3.79644 4.611004,-3.79644 1.049814,0 1.93434,1.03363 1.93434,2.26042 0,1.27769 -4.930039,8.62018 -6.189091,9.21764 -0.990878,0.4702 -1.590897,0.51174 -2.439469,0.16888 z m 90.120302,-4.51225 c -1.32608,-0.37897 -11.53223,-4.54803 -12.32384,-5.0341 -2.14159,-1.31497 -1.76846,-4.57921 0.60337,-5.2784 0.9535,-0.28109 1.33606,-0.16715 7.48713,2.22985 7.25413,2.82684 7.9375,3.27292 7.9375,5.18129 0,1.82735 -1.99486,3.38987 -3.70416,2.90136 z M 85.703538,135.3564 c -4.087992,-0.47525 -7.683526,-0.99833 -7.990078,-1.16239 -1.348882,-0.7219 -1.83938,-2.8509 -0.91523,-3.97256 0.50824,-0.61686 7.642886,-2.93622 9.032192,-2.93622 0.553204,0 2.060516,0.85144 5.161591,2.91567 2.409114,1.60362 4.50219,3.14361 4.651283,3.42219 0.452527,0.84555 0.327922,2.07976 -0.240694,2.38408 -0.695119,0.37201 -1.182947,0.33928 -9.699064,-0.65077 z M 60.327918,92.614999 c -4.692822,-2.32556 -8.18085,-4.21511 -8.532812,-4.62242 -0.942888,-1.09118 -0.819354,-2.60498 0.304271,-3.7286 1.539475,-1.53948 1.93903,-1.4308 10.781447,2.93235 4.486582,2.21384 8.017224,4.11939 8.361156,4.51267 0.714462,0.81698 0.807844,2.61131 0.182377,3.50429 -0.512881,0.73223 -1.743993,1.38761 -2.550488,1.35773 -0.334647,-0.0124 -4.180326,-1.7926 -8.545951,-3.95602 z m 9.120851,-13.4045 c -0.359801,-0.24735 -0.78931,-0.6343 -0.954463,-0.85989 -0.165153,-0.2256 -1.534372,-1.99987 -3.042708,-3.94283 -4.078949,-5.2543 -4.462222,-5.83047 -4.462222,-6.70801 0,-2.57286 3.225393,-4.00223 5.061008,-2.24284 1.13629,1.0891 7.767455,9.96642 7.947604,10.63966 0.268923,1.00502 -0.239604,2.42014 -1.086347,3.02307 -0.933135,0.66445 -2.566173,0.70729 -3.462872,0.0908 z"
       id="path302" /><path
       style="fill:#803300;stroke:none;stroke-width:0.288629;stroke-linecap:round;stroke-linejoin:round"
       d="m 136.78587,87.110029 c 0,-0.224959 0.26518,-1.194268 0.58929,-2.154015 l 0.58929,-1.744993 -1.45884,-2.983188 c -0.80237,-1.640753 -1.35979,-3.080816 -1.23871,-3.200143 0.12107,-0.119322 2.75286,-1.049031 5.84841,-2.066018 15.61017,-5.128432 22.55841,-9.248849 43.43878,-25.759915 8.85382,-7.001121 14.17817,-10.987749 15.60497,-11.68428 2.89003,-1.410846 5.97677,0.0379 8.94584,4.198673 0.70397,0.986531 1.61947,2.535288 2.03443,3.441684 1.44306,3.152053 0.54963,6.65403 -2.12679,8.336364 -0.59369,0.373185 -2.74206,1.353778 -4.77414,2.179101 -8.69537,3.531579 -9.69429,4.061203 -21.84903,11.584265 -10.71685,6.633088 -13.39286,8.162144 -19.86864,11.352847 -7.80757,3.846894 -13.40214,5.971305 -20.2509,7.689829 -4.77878,1.199116 -5.48396,1.303248 -5.48396,0.809789 z"
       id="path1073" /><path
       style="fill:#917c6f;stroke:none;stroke-width:0.288629;stroke-linecap:round;stroke-linejoin:round"
       d="m 111.38644,139.45185 c 0,-2.05409 -3.19261,-16.36867 -5.64246,-25.29879 -2.87658,-10.48565 -5.42169,-16.624388 -11.987823,-28.914363 -2.050608,-3.838175 -3.728381,-7.04706 -3.728381,-7.130854 0,-0.22893 2.748904,-1.793311 15.728034,-8.950674 6.50734,-3.588485 11.96245,-6.522183 12.12248,-6.51933 0.16003,0.0029 0.72858,0.674174 1.26344,1.491829 1.30955,2.00193 8.36893,13.789969 9.58266,16.001515 l 0.97042,1.768208 -0.52397,2.581056 c -0.7841,3.862466 -0.58105,7.730479 0.53321,10.157594 1.18391,2.578801 3.07578,4.898755 5.93289,7.275369 2.87329,2.39008 13.17842,10.32398 16.80709,12.93976 1.38903,1.00131 2.52551,1.91774 2.52551,2.03653 0,0.38091 -5.2489,5.48799 -8.08163,7.86327 -8.26816,6.93294 -18.79733,12.10703 -29.47951,14.4864 -1.84719,0.41144 -3.95779,0.83022 -4.69024,0.93061 l -1.33172,0.18253 z"
       id="path1144" /><path
       style="fill:#ff9955;stroke:none;stroke-width:0.288629;stroke-linecap:round;stroke-linejoin:round"
       d="m 112.71247,150.91799 c -0.07,-0.21867 -0.20894,-1.32833 -0.30878,-2.46591 -0.20314,-2.31457 -0.30711,-2.19149 2.15769,-2.55462 4.81061,-0.70874 15.04676,-3.93171 20.06898,-6.31895 7.89287,-3.75175 14.31362,-8.35874 21.71017,-15.57736 1.94465,-1.89786 3.53572,-3.35963 3.53572,-3.24838 0,1.10392 -4.06555,7.2131 -6.84475,10.28542 -7.39104,8.17054 -16.2435,14.05905 -26.07964,17.34772 -5.8238,1.94716 -13.96334,3.39456 -14.23939,2.53208 z"
       id="path1215" /></g></svg>
